<svg width="16" height="14" viewBox="0 0 16 14" xmlns="http://www.w3.org/2000/svg" xmlns:sketch="http://www.bohemiancoding.com/sketch/ns"><title>icn_tum_twitter</title><desc>Created with Sketch.</desc><path d="M16 1.657c-.59.281-1.223.472-1.885.556.676-.436 1.198-1.129 1.443-1.955-.635.405-1.337.701-2.085.858-.598-.687-1.452-1.116-2.396-1.116-1.813 0-3.282 1.582-3.282 3.535 0 .277.028.547.085.805-2.729-.148-5.148-1.554-6.767-3.692-.282.52-.443 1.129-.443 1.777 0 1.224.579 2.307 1.459 2.941-.538-.018-1.044-.178-1.487-.442v.043c0 1.714 1.132 3.142 2.633 3.466-.275.081-.565.124-.865.124-.212 0-.417-.021-.617-.064.417 1.404 1.63 2.427 3.066 2.455-1.123.949-2.539 1.513-4.076 1.513-.265 0-.527-.017-.783-.049 1.452 1.002 3.177 1.588 5.031 1.588 6.039 0 9.341-5.385 9.341-10.057l-.01-.457c.641-.498 1.198-1.119 1.638-1.829" sketch:type="MSShapeGroup" fill="#8F8F8F"/></svg>