<svg width="16" height="15" viewBox="0 0 16 15" xmlns="http://www.w3.org/2000/svg" xmlns:sketch="http://www.bohemiancoding.com/sketch/ns"><title>icn_tum_user</title><desc>Created with Sketch.</desc><path d="M8 0c-1.933 0-3.5 1.567-3.5 3.5s1.567 3.5 3.5 3.5 3.5-1.567 3.5-3.5-1.567-3.5-3.5-3.5m0 1c1.379 0 2.5 1.122 2.5 2.5s-1.121 2.5-2.5 2.5-2.5-1.122-2.5-2.5 1.121-2.5 2.5-2.5zm3.838 8h-7.676c-1.291 0-2.437.826-2.845 2.051l-1.317 3.949h16l-1.316-3.949c-.408-1.225-1.555-2.051-2.846-2.051zm0 1c.862 0 1.625.55 1.897 1.368l.878 2.632h-13.225l.877-2.632c.273-.818 1.035-1.368 1.897-1.368h7.676" sketch:type="MSShapeGroup" fill="#8F8F8F"/></svg>