<svg width="16" height="16" viewBox="0 0 16 16" xmlns="http://www.w3.org/2000/svg" xmlns:sketch="http://www.bohemiancoding.com/sketch/ns"><title>icn_tum_settings</title><desc>Created with Sketch.</desc><path d="M8 5.5c-1.379 0-2.5 1.121-2.5 2.5s1.121 2.5 2.5 2.5 2.5-1.121 2.5-2.5-1.121-2.5-2.5-2.5zm0 6c-1.93 0-3.5-1.57-3.5-3.5s1.57-3.5 3.5-3.5 3.5 1.57 3.5 3.5-1.57 3.5-3.5 3.5zm5.405-2.504c-.139.757-.441 1.488-.879 2.121l.94 1.316-1.033 1.033-1.316-.94c-.633.438-1.364.74-2.121.879l-.266 1.595h-1.46l-.266-1.595c-.757-.139-1.488-.441-2.121-.879l-1.316.94-1.033-1.033.94-1.316c-.438-.633-.74-1.364-.879-2.121l-1.595-.266v-1.46l1.595-.266c.139-.757.441-1.488.879-2.121l-.94-1.316 1.033-1.033 1.316.94c.633-.438 1.364-.74 2.121-.879l.266-1.595h1.46l.266 1.595c.757.139 1.488.441 2.121.879l1.316-.94 1.033 1.033-.94 1.316c.438.633.74 1.364.879 2.121l1.595.266v1.46l-1.595.266zm2.595.581v-3.154l-1.777-.297c-.126-.42-.293-.823-.497-1.203l1.046-1.465-2.23-2.23-1.465 1.046c-.38-.204-.783-.371-1.203-.497l-.297-1.777h-3.154l-.297 1.777c-.42.126-.823.293-1.203.497l-1.465-1.046-2.23 2.23 1.046 1.465c-.204.38-.371.783-.497 1.203l-1.777.297v3.154l1.777.297c.126.42.293.823.497 1.203l-1.046 1.465 2.23 2.23 1.465-1.046c.38.204.783.371 1.203.497l.297 1.777h3.154l.297-1.777c.42-.126.823-.293 1.203-.497l1.465 1.046 2.23-2.23-1.046-1.465c.204-.38.371-.783.497-1.203l1.777-.297z" sketch:type="MSShapeGroup" fill="#8F8F8F"/></svg>