<svg width="15" height="19" viewBox="0 0 15 19" xmlns="http://www.w3.org/2000/svg"><title>icn_tum_register</title><desc>Created with Sketch.</desc><path d="M0 3v16h8l4-3.999v-8l-1 .999v6h-4v4h-6v-14h6l1-1h-8zm8 12.001h2.5l-2.5 2.499v-2.499zm4.348-15.001l-8.469 8.687-.796 3.535 3.447-.815 8.47-8.687-2.652-2.72zm-.795 1.903l.795-.815 1.591 1.632-.795.815-1.591-1.632zm-6.614 6.784l6.083-6.24.531.545-6.084 6.238.531.545 6.083-6.24.53.545-6.083 6.239-1.591-1.632zm-.435.641l1.401 1.437-1.822.431.421-1.868z" fill="#8F8F8F"/></svg>