<svg width="12" height="13" viewBox="0 0 12 13" xmlns="http://www.w3.org/2000/svg" xmlns:sketch="http://www.bohemiancoding.com/sketch/ns"><title>icn_tum_lock</title><desc>Created with Sketch.</desc><path d="M11 6h-10v6h10v-6zm-8-1h6v-.889c0-1.715-1.284-3.111-3-3.111s-3 1.396-3 3.111v.889zm9 0v8h-12v-8h2v-.889c0-2.266 1.733-4.111 4-4.111s4 1.845 4 4.111v.889h2zm-7 3.5c0-.552.448-1 1-1s1 .448 1 1c0 .366-.207.672-.5.846v1.654h-1v-1.654c-.293-.174-.5-.48-.5-.846z" sketch:type="MSShapeGroup" fill="#8F8F8F"/></svg>